inDegrees=yes
name=ik_lifting_orientations
DataType=double
version=3
OpenSimVersion=4.5-2024-01-10-34fd6af
endheader
time	pelvis_tilt	pelvis_list	pelvis_rotation	pelvis_tx	pelvis_ty	pelvis_tz	hip_flexion_r	hip_adduction_r	hip_rotation_r	knee_angle_r	knee_angle_r_beta	ankle_angle_r	subtalar_angle_r	mtp_angle_r	hip_flexion_l	hip_adduction_l	hip_rotation_l	knee_angle_l	knee_angle_l_beta	ankle_angle_l	subtalar_angle_l	mtp_angle_l	lumbar_extension	lumbar_bending	lumbar_rotation	arm_flex_r	arm_add_r	arm_rot_r	elbow_flex_r	pro_sup_r	wrist_flex_r	wrist_dev_r	arm_flex_l	arm_add_l	arm_rot_l	elbow_flex_l	pro_sup_l	wrist_flex_l	wrist_dev_l
2.2	1.533209548436452	-3.127895628170969	-88.53249525280526	0	0.9399999998679526	0	44.94121953017451	-10.20078133945958	0	60.16618471676204	1.05009802167059	-5.048387186111289	0	0	44.94121953017451	-10.20078133945958	0	60.16618471676204	1.05009802167059	-5.048387186111289	0	0	3.685753185496439	-5.835578997858429	9.418040587904802	53.86545009647527	-11.22406175348834	24.41617265784211	87.55006350118924	1.463554332193369	0	0	0	-11.12614729403563	0	88.56994488077081	1.463554332193369	0	0
2.21	1.519604914438407	-3.070826676793117	-88.534354088973	0	0.9399999998679526	0	44.94144372164186	-10.19888389939781	0	60.16556404361238	1.050087188880549	-5.047834748481907	0	0	44.94144372164186	-10.19888389939781	0	60.16556404361238	1.050087188880549	-5.047834748481907	0	0	3.596859019209019	-5.808360908220265	9.094044256802679	50.8403206561326	-14.28191124752346	23.57386476349411	85.6629562275666	1.45930379428066	0	0	0	-11.13504577166394	0	88.57409759816073	1.45930379428066	0	0
2.22	1.535793852342697	-3.127987440187933	-88.35343964028171	0	0.9399999998679526	0	44.9416745653258	-10.19693925876727	0	60.16492514368411	1.05007603797321	-5.047269520020337	0	0	44.9416745653258	-10.19693925876727	0	60.16492514368411	1.05007603797321	-5.047269520020337	0	0	3.443618058597621	-5.841063906392398	8.917832756980241	47.68850359039526	-17.39684404517179	22.17957528969674	83.5551030223793	1.454923971419946	0	0	0	-11.14421923368012	0	88.57837662532809	1.454923971419946	0	0
2.23	1.568043954200714	-3.191440480862763	-88.85290806598246	0	0.9399999998679526	0	44.94191709554688	-10.19491812275849	0	60.16425242041253	1.050064296737166	-5.046684100791055	0	0	44.94191709554688	-10.19491812275849	0	60.16425242041253	1.050064296737166	-5.046684100791055	0	0	3.356227002681861	-5.836294345423297	9.551140080072228	44.29684827890056	-20.24742684385333	20.39609843325466	81.36880480564787	1.450313546024408	0	0	0	-11.15388857283553	0	88.58288094845065	1.450313546024408	0	0
2.24	1.523086262279639	-3.063675960269833	-88.6709329095667	0	0.9399999998679526	0	44.94215290380139	-10.19296784073881	0	60.16359764107793	1.050052868681904	-5.046120589621498	0	0	44.94215290380139	-10.19296784073881	0	60.16359764107793	1.050052868681904	-5.046120589621498	0	0	3.274903347988588	-5.738749264545716	9.591509834342503	40.92877185276563	-22.88617152247929	18.34179991097372	78.78624478544288	1.445824858172459	0	0	0	-11.16331135843014	0	88.58726633593233	1.445824858172459	0	0
2.25	1.49304388452763	-3.016389714711209	-88.78985378645697	0	0.9399999998679526	0	44.942389083599	-10.19101553036175	0	60.16294352577019	1.050041452216096	-5.045556830876742	0	0	44.942389083599	-10.19101553036175	0	60.16294352577019	1.050041452216096	-5.045556830876742	0	0	3.154913528464491	-5.642999721180079	9.772331794044456	37.4914319723709	-25.09642868624577	16.19067149650329	76.05494650918619	1.441329898339623	0	0	0	-11.17274549429841	0	88.59165785100883	1.441329898339623	0	0
2.26	1.482659622473571	-3.02133923800103	-88.78772019130852	0	0.9399999998679526	0	44.94261650621256	-10.18915414509818	0	60.16231230458529	1.050030435328111	-5.045021000080549	0	0	44.94261650621256	-10.18915414509818	0	60.16231230458529	1.050030435328111	-5.045021000080549	0	0	2.896140118086378	-5.549958281266663	9.82293159910923	33.98688058840921	-26.95224137797879	13.89208644377746	73.90763691223587	1.436993711483697	0	0	0	-11.18185799459859	0	88.59589424740349	1.436993711483697	0	0
2.27	1.520692791621717	-3.068930801283292	-88.29609160669368	0	0.9399999998679526	0	44.9428543045725	-10.18718232405785	0	60.16165820341325	1.050019019109018	-5.044451608854685	0	0	44.9428543045725	-10.18718232405785	0	60.16165820341325	1.050019019109018	-5.044451608854685	0	0	2.76087319443054	-5.580874294587538	9.378686533517731	30.083010113488	-28.30629564210033	11.19906539876174	71.82369988197316	1.432473359022387	0	0	0	-11.19133603443511	0	88.60031057047276	1.432473359022387	0	0
2.28	1.567950248783177	-3.12188218755301	-88.03024727405814	0	0.9399999998679526	0	44.94307952869612	-10.18534172534012	0	60.16103599180212	1.050008159467759	-5.043922448676113	0	0	44.94307952869612	-10.18534172534012	0	60.16103599180212	1.050008159467759	-5.043922448676113	0	0	2.446839102336474	-5.529129339721417	9.113623718652208	26.43029990964413	-29.53060301383368	8.43534976097234	69.61497822551482	1.428180099325564	0	0	0	-11.20035571486502	0	88.60450502755259	1.428180099325564	0	0
2.29	1.580680782630526	-3.186814792133568	-88.02825783470311	0	0.9399999998679526	0	44.94330894836119	-10.18346993243842	0	60.16040348986395	1.049997120226413	-5.043384831518928	0	0	44.94330894836119	-10.18346993243842	0	60.16040348986395	1.049997120226413	-5.043384831518928	0	0	2.213409066299264	-5.448806460496795	9.098331988971479	22.69129093655112	-30.2244401931398	5.472370131468585	67.55331917848166	1.423806730513139	0	0	0	-11.20954328572269	0	88.60877775016498	1.423806730513139	0	0
2.3	1.560642009114373	-3.117295746264929	-87.96871674080711	0	0.9399999998679526	0	44.94353556894239	-10.18162193597124	0	60.15978034390191	1.049986244277655	-5.042854394215878	0	0	44.94353556894239	-10.18162193597124	0	60.15978034390191	1.049986244277655	-5.042854394215878	0	0	2.096455851416953	-5.359248016532147	8.95613520964825	19.17087317411787	-30.53861584551496	2.718507633054435	65.53616619416313	1.419487642651375	0	0	0	-11.2186147891107	0	88.61299744097198	1.419487642651375	0	0
2.31	1.575353330759849	-3.118101422433642	-88.34605823049114	0	0.9399999998679526	0	44.9437618699385	-10.17979643976854	0	60.15915660499008	1.049975357979971	-5.042332228835869	0	0	44.9437618699385	-10.17979643976854	0	60.15915660499008	1.049975357979971	-5.042332228835869	0	0	1.918570082431366	-5.229089790209736	9.258764888338836	15.72483522872663	-30.75202629010182	-0.04411442611996731	63.46801864945382	1.415166187357396	0	0	0	-11.22770365269259	0	88.61721944511665	1.415166187357396	0	0
2.32	1.594305871862329	-3.185820148580019	-88.41705165443396	0	0.9399999998679526	0	44.94396956889076	-10.17815865931756	0	60.15857871942133	1.049965271974096	-5.041866717830054	0	0	44.94396956889076	-10.17815865931756	0	60.15857871942133	1.049965271974096	-5.041866717830054	0	0	1.633429482845965	-5.109104469670347	9.236609833676424	14.21354365924574	-30.66940666030411	-1.448280788503215	60.27080647833032	1.411181245344104	0	0	0	-11.23611347092204	0	88.6211126811431	1.411181245344104	0	0
2.33	1.598258064741049	-3.183678867333343	-88.3117144238404	0	0.9399999998679526	0	44.94418244065378	-10.17645660818587	0	60.15799217978897	1.049955034926318	-5.041381372082056	0	0	44.94418244065378	-10.17645660818587	0	60.15799217978897	1.049955034926318	-5.041381372082056	0	0	1.486259918099821	-5.0201622470459	9.194867911178783	10.83160990077623	-30.48332580901479	-4.312863634743779	58.60077045026569	1.407110405630408	0	0	0	-11.24468342488131	0	88.6250898374805	1.407110405630408	0	0
